<mxfile host="Electron" agent="Mozilla/5.0 (X11; Linux x86_64) AppleWebKit/537.36 (KHTML, like Gecko) draw.io/24.7.17 Chrome/128.0.6613.36 Electron/32.0.1 Safari/537.36" version="24.7.17">
  <diagram name="PÃ¡gina-1" id="LUhKTUrMw7wmdxUSNtai">
    <mxGraphModel dx="989" dy="1749" grid="0" gridSize="10" guides="0" tooltips="1" connect="0" arrows="0" fold="1" page="1" pageScale="1" pageWidth="827" pageHeight="1169" math="0" shadow="0">
      <root>
        <mxCell id="0" />
        <mxCell id="1" parent="0" />
        <mxCell id="LeFruTOL68ddHuIKSZCm-8" value=":APIB3" style="shape=umlLifeline;perimeter=lifelinePerimeter;whiteSpace=wrap;html=1;container=1;dropTarget=0;collapsible=0;recursiveResize=0;outlineConnect=0;portConstraint=eastwest;newEdgeStyle={&quot;curved&quot;:0,&quot;rounded&quot;:0};" parent="1" vertex="1">
          <mxGeometry x="514" y="-1009" width="130" height="314" as="geometry" />
        </mxCell>
        <mxCell id="LeFruTOL68ddHuIKSZCm-54" value="" style="html=1;points=[[0,0,0,0,5],[0,1,0,0,-5],[1,0,0,0,5],[1,1,0,0,-5]];perimeter=orthogonalPerimeter;outlineConnect=0;targetShapes=umlLifeline;portConstraint=eastwest;newEdgeStyle={&quot;curved&quot;:0,&quot;rounded&quot;:0};" parent="LeFruTOL68ddHuIKSZCm-8" vertex="1">
          <mxGeometry x="60" y="119" width="10" height="118" as="geometry" />
        </mxCell>
        <mxCell id="LeFruTOL68ddHuIKSZCm-16" value="ordem:Ordem" style="shape=umlLifeline;perimeter=lifelinePerimeter;whiteSpace=wrap;html=1;container=1;dropTarget=0;collapsible=0;recursiveResize=0;outlineConnect=0;portConstraint=eastwest;newEdgeStyle={&quot;curved&quot;:0,&quot;rounded&quot;:0};" parent="1" vertex="1">
          <mxGeometry x="336" y="-1010" width="130" height="314" as="geometry" />
        </mxCell>
        <mxCell id="LeFruTOL68ddHuIKSZCm-17" value="" style="html=1;points=[[0,0,0,0,5],[0,1,0,0,-5],[1,0,0,0,5],[1,1,0,0,-5]];perimeter=orthogonalPerimeter;outlineConnect=0;targetShapes=umlLifeline;portConstraint=eastwest;newEdgeStyle={&quot;curved&quot;:0,&quot;rounded&quot;:0};" parent="LeFruTOL68ddHuIKSZCm-16" vertex="1">
          <mxGeometry x="60" y="99" width="10" height="21" as="geometry" />
        </mxCell>
        <mxCell id="kIhIN6eUM5l1OgSGPub2-45" value="" style="html=1;points=[[0,0,0,0,5],[0,1,0,0,-5],[1,0,0,0,5],[1,1,0,0,-5]];perimeter=orthogonalPerimeter;outlineConnect=0;targetShapes=umlLifeline;portConstraint=eastwest;newEdgeStyle={&quot;curved&quot;:0,&quot;rounded&quot;:0};" parent="LeFruTOL68ddHuIKSZCm-16" vertex="1">
          <mxGeometry x="60" y="237" width="10" height="21" as="geometry" />
        </mxCell>
        <mxCell id="cZG0biF8OXEsiVtM545H-1" value="API B3" style="shape=umlActor;verticalLabelPosition=bottom;verticalAlign=top;html=1;" parent="1" vertex="1">
          <mxGeometry x="694" y="-1038" width="30" height="60" as="geometry" />
        </mxCell>
        <mxCell id="cZG0biF8OXEsiVtM545H-2" value="" style="endArrow=none;dashed=1;html=1;rounded=0;" parent="1" source="cZG0biF8OXEsiVtM545H-3" edge="1">
          <mxGeometry width="50" height="50" relative="1" as="geometry">
            <mxPoint x="708.99" y="-668" as="sourcePoint" />
            <mxPoint x="708.71" y="-948" as="targetPoint" />
          </mxGeometry>
        </mxCell>
        <mxCell id="cZG0biF8OXEsiVtM545H-4" value="" style="endArrow=none;dashed=1;html=1;rounded=0;" parent="1" target="cZG0biF8OXEsiVtM545H-3" edge="1">
          <mxGeometry width="50" height="50" relative="1" as="geometry">
            <mxPoint x="709" y="-693" as="sourcePoint" />
            <mxPoint x="708.71" y="-948" as="targetPoint" />
          </mxGeometry>
        </mxCell>
        <mxCell id="cZG0biF8OXEsiVtM545H-3" value="" style="html=1;points=[[0,0,0,0,5],[0,1,0,0,-5],[1,0,0,0,5],[1,1,0,0,-5]];perimeter=orthogonalPerimeter;outlineConnect=0;targetShapes=umlLifeline;portConstraint=eastwest;newEdgeStyle={&quot;curved&quot;:0,&quot;rounded&quot;:0};" parent="1" vertex="1">
          <mxGeometry x="704" y="-876" width="10" height="88" as="geometry" />
        </mxCell>
        <mxCell id="Ljz74V_naiSOcVQNEq21-2" value="" style="endArrow=classic;html=1;rounded=0;" parent="1" target="LeFruTOL68ddHuIKSZCm-17" edge="1">
          <mxGeometry width="50" height="50" relative="1" as="geometry">
            <mxPoint x="209" y="-911" as="sourcePoint" />
            <mxPoint x="345.5" y="-911" as="targetPoint" />
          </mxGeometry>
        </mxCell>
        <mxCell id="Ljz74V_naiSOcVQNEq21-3" value="getStatus(ordem)" style="edgeLabel;html=1;align=center;verticalAlign=middle;resizable=0;points=[];" parent="Ljz74V_naiSOcVQNEq21-2" vertex="1" connectable="0">
          <mxGeometry x="0.1526" relative="1" as="geometry">
            <mxPoint x="-12" y="-9" as="offset" />
          </mxGeometry>
        </mxCell>
        <mxCell id="Ljz74V_naiSOcVQNEq21-4" value="" style="endArrow=classic;html=1;rounded=0;" parent="1" target="LeFruTOL68ddHuIKSZCm-8" edge="1">
          <mxGeometry width="50" height="50" relative="1" as="geometry">
            <mxPoint x="406" y="-890" as="sourcePoint" />
            <mxPoint x="685.5" y="-890" as="targetPoint" />
          </mxGeometry>
        </mxCell>
        <mxCell id="Ljz74V_naiSOcVQNEq21-5" value="consultarStatusOrdem(ordem)" style="edgeLabel;html=1;align=center;verticalAlign=middle;resizable=0;points=[];" parent="Ljz74V_naiSOcVQNEq21-4" vertex="1" connectable="0">
          <mxGeometry x="-0.5083" y="1" relative="1" as="geometry">
            <mxPoint x="46" y="-10" as="offset" />
          </mxGeometry>
        </mxCell>
        <mxCell id="Ljz74V_naiSOcVQNEq21-6" value="" style="endArrow=classic;html=1;rounded=0;" parent="1" edge="1">
          <mxGeometry width="50" height="50" relative="1" as="geometry">
            <mxPoint x="583.9999999999998" y="-875.5000000000001" as="sourcePoint" />
            <mxPoint x="703.9999999999998" y="-875.5000000000001" as="targetPoint" />
          </mxGeometry>
        </mxCell>
        <mxCell id="Ljz74V_naiSOcVQNEq21-7" value="consulta status&lt;div&gt;da ordem de&lt;/div&gt;&lt;div&gt;compra&lt;/div&gt;" style="edgeLabel;html=1;align=center;verticalAlign=middle;resizable=0;points=[];" parent="Ljz74V_naiSOcVQNEq21-6" vertex="1" connectable="0">
          <mxGeometry x="0.1201" relative="1" as="geometry">
            <mxPoint x="-9" y="-22" as="offset" />
          </mxGeometry>
        </mxCell>
        <mxCell id="Ljz74V_naiSOcVQNEq21-8" value="" style="endArrow=none;html=1;rounded=0;startArrow=open;startFill=0;endFill=0;dashed=1;" parent="1" edge="1">
          <mxGeometry width="50" height="50" relative="1" as="geometry">
            <mxPoint x="584.9999999999998" y="-800.0000000000001" as="sourcePoint" />
            <mxPoint x="704.9999999999998" y="-800.0000000000001" as="targetPoint" />
          </mxGeometry>
        </mxCell>
        <mxCell id="Ljz74V_naiSOcVQNEq21-9" value="status atual da&amp;nbsp;&lt;div&gt;ordem de compra&lt;/div&gt;" style="edgeLabel;html=1;align=center;verticalAlign=middle;resizable=0;points=[];" parent="Ljz74V_naiSOcVQNEq21-8" vertex="1" connectable="0">
          <mxGeometry x="0.1201" relative="1" as="geometry">
            <mxPoint x="-4" y="-16" as="offset" />
          </mxGeometry>
        </mxCell>
        <mxCell id="Ljz74V_naiSOcVQNEq21-12" value="" style="endArrow=none;html=1;rounded=0;startArrow=open;startFill=0;endFill=0;dashed=1;" parent="1" source="kIhIN6eUM5l1OgSGPub2-45" edge="1">
          <mxGeometry width="50" height="50" relative="1" as="geometry">
            <mxPoint x="466" y="-772" as="sourcePoint" />
            <mxPoint x="576.5" y="-772" as="targetPoint" />
          </mxGeometry>
        </mxCell>
        <mxCell id="Ljz74V_naiSOcVQNEq21-13" value="status" style="edgeLabel;html=1;align=center;verticalAlign=middle;resizable=0;points=[];" parent="Ljz74V_naiSOcVQNEq21-12" vertex="1" connectable="0">
          <mxGeometry x="-0.3562" y="2" relative="1" as="geometry">
            <mxPoint x="29" y="13" as="offset" />
          </mxGeometry>
        </mxCell>
        <mxCell id="kIhIN6eUM5l1OgSGPub2-43" value="&lt;b&gt;:Interface&lt;/b&gt;" style="shape=umlLifeline;perimeter=lifelinePerimeter;whiteSpace=wrap;html=1;container=0;dropTarget=0;collapsible=0;recursiveResize=0;outlineConnect=0;portConstraint=eastwest;newEdgeStyle={&quot;edgeStyle&quot;:&quot;elbowEdgeStyle&quot;,&quot;elbow&quot;:&quot;vertical&quot;,&quot;curved&quot;:0,&quot;rounded&quot;:0};" parent="1" vertex="1">
          <mxGeometry x="152" y="-1010" width="104" height="306" as="geometry" />
        </mxCell>
        <mxCell id="kIhIN6eUM5l1OgSGPub2-44" value="" style="html=1;points=[];perimeter=orthogonalPerimeter;outlineConnect=0;targetShapes=umlLifeline;portConstraint=eastwest;newEdgeStyle={&quot;edgeStyle&quot;:&quot;elbowEdgeStyle&quot;,&quot;elbow&quot;:&quot;vertical&quot;,&quot;curved&quot;:0,&quot;rounded&quot;:0};" parent="kIhIN6eUM5l1OgSGPub2-43" vertex="1">
          <mxGeometry x="47" y="77" width="10" height="201" as="geometry" />
        </mxCell>
        <mxCell id="kIhIN6eUM5l1OgSGPub2-46" value="" style="endArrow=none;html=1;rounded=0;startArrow=open;startFill=0;endFill=0;dashed=1;" parent="1" source="kIhIN6eUM5l1OgSGPub2-44" edge="1">
          <mxGeometry width="50" height="50" relative="1" as="geometry">
            <mxPoint x="262" y="-752" as="sourcePoint" />
            <mxPoint x="397.5" y="-752" as="targetPoint" />
          </mxGeometry>
        </mxCell>
        <mxCell id="kIhIN6eUM5l1OgSGPub2-47" value="responde status da ordem de&lt;div&gt;compra&amp;nbsp; (executada, cancelada,&lt;/div&gt;&lt;div&gt;pendente)&lt;/div&gt;" style="edgeLabel;html=1;align=center;verticalAlign=middle;resizable=0;points=[];" parent="kIhIN6eUM5l1OgSGPub2-46" vertex="1" connectable="0">
          <mxGeometry x="-0.3562" y="2" relative="1" as="geometry">
            <mxPoint x="29" y="25" as="offset" />
          </mxGeometry>
        </mxCell>
        <mxCell id="kIhIN6eUM5l1OgSGPub2-48" value="UC-11&lt;div&gt;Consultar status da ordem de compra&lt;/div&gt;" style="strokeWidth=2;html=1;shape=mxgraph.flowchart.start_1;whiteSpace=wrap;" parent="1" vertex="1">
          <mxGeometry x="388" y="-1130" width="134" height="83" as="geometry" />
        </mxCell>
        <mxCell id="kIhIN6eUM5l1OgSGPub2-49" value="&lt;font color=&quot;#3399ff&quot;&gt;essa resposta Ã© condiÃ§Ã£o de guarda em outros casos&amp;nbsp;&lt;/font&gt;&lt;span style=&quot;color: rgb(51, 153, 255); background-color: initial;&quot;&gt;de uso&lt;/span&gt;" style="rounded=1;whiteSpace=wrap;html=1;dashed=1;fillColor=none;strokeColor=#6c8ebf;" parent="1" vertex="1">
          <mxGeometry x="51" y="-689" width="142" height="60" as="geometry" />
        </mxCell>
        <mxCell id="kIhIN6eUM5l1OgSGPub2-50" value="" style="endArrow=classic;html=1;rounded=0;fontSize=12;startSize=8;endSize=8;curved=1;endFill=1;fillColor=#dae8fc;strokeColor=#6c8ebf;" parent="1" edge="1">
          <mxGeometry width="50" height="50" relative="1" as="geometry">
            <mxPoint x="125" y="-689" as="sourcePoint" />
            <mxPoint x="186" y="-751" as="targetPoint" />
            <Array as="points">
              <mxPoint x="123" y="-691" />
              <mxPoint x="148" y="-737" />
            </Array>
          </mxGeometry>
        </mxCell>
      </root>
    </mxGraphModel>
  </diagram>
</mxfile>
